curl
version=1
nRows=398
nColumns=3
inDegrees=yes
endheader
time	r_shoulder_elev	r_elbow_flex
8.9900	34.323851	109.487512
9.0000	34.383206	108.786432
9.0100	34.442532	108.037976
9.0200	34.501422	107.245730
9.0300	34.559483	106.413406
9.0400	34.616340	105.544813
9.0500	34.671637	104.643823
9.0600	34.725037	103.714335
9.0700	34.776225	102.760236
9.0800	34.824908	101.785374
9.0900	34.870816	100.793517
9.1000	34.913704	99.788327
9.1100	34.953353	98.773323
9.1200	34.989570	97.751860
9.1300	35.022191	96.727101
9.1400	35.051078	95.701995
9.1500	35.076127	94.679263
9.1600	35.097260	93.661382
9.1700	35.114433	92.650573
9.1800	35.127631	91.648800
9.1900	35.136871	90.657761
9.2000	35.142200	89.678892
9.2100	35.143693	88.713369
9.2200	35.141455	87.762110
9.2300	35.135614	86.825786
9.2400	35.126325	85.904831
9.2500	35.113762	84.999449
9.2600	35.098121	84.109629
9.2700	35.079611	83.235158
9.2800	35.058456	82.375632
9.2900	35.034890	81.530475
9.3000	35.009152	80.698946
9.3100	34.981488	79.880161
9.3200	34.952144	79.073098
9.3300	34.921362	78.276614
9.3400	34.889384	77.489459
9.3500	34.856443	76.710282
9.3600	34.822764	75.937648
9.3700	34.788562	75.170044
9.3800	34.754040	74.405893
9.3900	34.719391	73.643564
9.4000	34.684791	72.881383
9.4100	34.650406	72.117645
9.4200	34.616384	71.350627
9.4300	34.582863	70.578599
9.4400	34.549965	69.799842
9.4500	34.517799	69.012656
9.4600	34.486462	68.215382
9.4700	34.456038	67.406410
9.4800	34.426601	66.584200
9.4900	34.398214	65.747294
9.5000	34.370930	64.894334
9.5100	34.344794	64.024075
9.5200	34.319843	63.135401
9.5300	34.296107	62.227336
9.5400	34.273611	61.299058
9.5500	34.252374	60.349912
9.5600	34.232411	59.379413
9.5700	34.213732	58.387259
9.5800	34.196348	57.373334
9.5900	34.180262	56.337709
9.6000	34.165481	55.280648
9.6100	34.152008	54.202600
9.6200	34.139845	53.104205
9.6300	34.128994	51.986282
9.6400	34.119458	50.849823
9.6500	34.111239	49.695990
9.6600	34.104340	48.526099
9.6700	34.098764	47.341610
9.6800	34.094515	46.144118
9.6900	34.091597	44.935335
9.7000	34.090014	43.717076
9.7100	34.089771	42.491251
9.7200	34.090873	41.259843
9.7300	34.093323	40.024900
9.7400	34.097127	38.788518
9.7500	34.102290	37.552829
9.7600	34.108813	36.319990
9.7700	34.116701	35.092166
9.7800	34.125956	33.871522
9.7900	34.136577	32.660207
9.8000	34.148565	31.460343
9.8100	34.161916	30.274010
9.8200	34.176627	29.103236
9.8300	34.192690	27.949980
9.8400	34.210095	26.816125
9.8500	34.228830	25.703458
9.8600	34.248876	24.613662
9.8700	34.270214	23.548308
9.8800	34.292819	22.508840
9.8900	34.316661	21.496567
9.9000	34.341707	20.512661
9.9100	34.367915	19.558146
9.9200	34.395242	18.633896
9.9300	34.423636	17.740634
9.9400	34.453040	16.878926
9.9500	34.483392	16.049187
9.9600	34.514622	15.251676
9.9700	34.546652	14.486504
9.9800	34.579399	13.753632
9.9900	34.612769	13.052883
10.0000	34.646662	12.383939
10.0100	34.680968	11.746354
10.0200	34.715567	11.139556
10.0300	34.750330	10.562859
10.0400	34.785115	10.015469
10.0500	34.819773	9.496494
10.0600	34.854141	9.004951
10.0700	34.888045	8.539779
10.0800	34.921300	8.099849
10.0900	34.953711	7.683971
10.1000	34.985072	7.290912
10.1100	35.015166	6.919401
10.1200	35.043770	6.568144
10.1300	35.070651	6.235837
10.1400	35.095571	5.921177
10.1500	35.118289	5.622878
10.1600	35.138561	5.339679
10.1700	35.156143	5.070364
10.1800	35.170795	4.813775
10.1900	35.182282	4.568823
10.2000	35.190377	4.334508
10.2100	35.194866	4.109933
10.2200	35.195549	3.894318
10.2300	35.192242	3.687018
10.2400	35.184785	3.487541
10.2500	35.173040	3.295560
10.2600	35.156893	3.110935
10.2700	35.136264	2.933723
10.2800	35.111101	2.764198
10.2900	35.081389	2.602862
10.3000	35.047147	2.450461
10.3100	35.008435	2.307993
10.3200	34.965349	2.176720
10.3300	34.918029	2.058175
10.3400	34.866657	1.954164
10.3500	34.811458	1.866767
10.3600	34.752697	1.798337
10.3700	34.690686	1.751495
10.3800	34.625776	1.729113
10.3900	34.558360	1.734308
10.4000	34.488872	1.770417
10.4100	34.417781	1.840976
10.4200	34.345594	1.949691
10.4300	34.272848	2.100408
10.4400	34.200112	2.297078
10.4500	34.127977	2.543713
10.4600	34.057058	2.844350
10.4700	33.987983	3.203000
10.4800	33.921395	3.623604
10.4900	33.857937	4.109983
10.5000	33.798257	4.665785
10.5100	33.742994	5.294440
10.5200	33.692772	5.999107
10.5300	33.648199	6.782623
10.5400	33.609854	7.647461
10.5500	33.578284	8.595683
10.5600	33.553999	9.628901
10.5700	33.537461	10.748242
10.5800	33.529081	11.954315
10.5900	33.529215	13.247190
10.6000	33.538156	14.626380
10.6100	33.556131	16.090830
10.6200	33.583294	17.638917
10.6300	33.619726	19.268457
10.6400	33.665431	20.976720
10.6500	33.720331	22.760454
10.6600	33.784269	24.615915
10.6700	33.857003	26.538907
10.6800	33.938208	28.524824
10.6900	34.027480	30.568705
10.7000	34.124330	32.665286
10.7100	34.228194	34.809057
10.7200	34.338432	36.994322
10.7300	34.454331	39.215262
10.7400	34.575113	41.465992
10.7500	34.699938	43.740622
10.7600	34.827912	46.033313
10.7700	34.958092	48.338332
10.7800	35.089494	50.650101
10.7900	35.221103	52.963238
10.8000	35.351881	55.272603
10.8100	35.480775	57.573323
10.8200	35.606730	59.860826
10.8300	35.728697	62.130852
10.8400	35.845645	64.379473
10.8500	35.956571	66.603097
10.8600	36.060515	68.798463
10.8700	36.156568	70.962640
10.8800	36.243882	73.093013
10.8900	36.321688	75.187264
10.9000	36.389296	77.243352
10.9100	36.446115	79.259482
10.9200	36.491656	81.234080
10.9300	36.525539	83.165757
10.9400	36.547507	85.053271
10.9500	36.557421	86.895495
10.9600	36.555272	88.691376
10.9700	36.541182	90.439900
10.9800	36.515401	92.140062
10.9900	36.478311	93.790827
11.0000	36.430418	95.391110
11.0100	36.372353	96.939748
11.0200	36.304865	98.435487
11.0300	36.228808	99.876969
11.0400	36.145137	101.262722
11.0500	36.054895	102.591167
11.0600	35.959202	103.860621
11.0700	35.859235	105.069307
11.0800	35.756223	106.215375
11.0900	35.651420	107.296919
11.1000	35.546100	108.312002
11.1100	35.441529	109.258683
11.1200	35.338955	110.135047
11.1300	35.239592	110.939232
11.1400	35.144599	111.669459
11.1500	35.055068	112.324062
11.1600	34.972011	112.901516
11.1700	34.896344	113.400462
11.1800	34.828881	113.819735
11.1900	34.770317	114.158386
11.2000	34.721229	114.415701
11.2100	34.682063	114.591222
11.2200	34.653137	114.684759
11.2300	34.634631	114.696405
11.2400	34.626595	114.626545
11.2500	34.628947	114.475860
11.2600	34.641478	114.245336
11.2700	34.663856	113.936257
11.2800	34.695635	113.550208
11.2900	34.736260	113.089065
11.3000	34.785082	112.554989
11.3100	34.841363	111.950414
11.3200	34.904288	111.278030
11.3300	34.972978	110.540767
11.3400	35.046503	109.741777
11.3500	35.123891	108.884406
11.3600	35.204142	107.972176
11.3700	35.286241	107.008755
11.3800	35.369166	105.997931
11.3900	35.451903	104.943580
11.4000	35.533457	103.849639
11.4100	35.612859	102.720074
11.4200	35.689179	101.558846
11.4300	35.761533	100.369884
11.4400	35.829092	99.157048
11.4500	35.891087	97.924102
11.4600	35.946820	96.674682
11.4700	35.995666	95.412269
11.4800	36.037076	94.140159
11.4900	36.070586	92.861443
11.5000	36.095816	91.578982
11.5100	36.112470	90.295391
11.5200	36.120344	89.013018
11.5300	36.119320	87.733937
11.5400	36.109368	86.459932
11.5500	36.090545	85.192498
11.5600	36.062993	83.932833
11.5700	36.026934	82.681843
11.5800	35.982669	81.440145
11.5900	35.930575	80.208080
11.6000	35.871097	78.985720
11.6100	35.804745	77.772891
11.6200	35.732084	76.569188
11.6300	35.653735	75.374000
11.6400	35.570361	74.186530
11.6500	35.482663	73.005829
11.6600	35.391369	71.830819
11.6700	35.297232	70.660326
11.6800	35.201015	69.493108
11.6900	35.103489	68.327889
11.7000	35.005421	67.163392
11.7100	34.907567	65.998362
11.7200	34.810666	64.831604
11.7300	34.715432	63.662004
11.7400	34.622549	62.488553
11.7500	34.532664	61.310374
11.7600	34.446383	60.126733
11.7700	34.364264	58.937060
11.7800	34.286820	57.740954
11.7900	34.214508	56.538196
11.8000	34.147733	55.328747
11.8100	34.086843	54.112753
11.8200	34.032128	52.890539
11.8300	33.983824	51.662602
11.8400	33.942108	50.429608
11.8500	33.907098	49.192377
11.8600	33.878860	47.951878
11.8700	33.857404	46.709211
11.8800	33.842689	45.465603
11.8900	33.834621	44.222389
11.9000	33.833061	42.981003
11.9100	33.837824	41.742967
11.9200	33.848682	40.509874
11.9300	33.865372	39.283377
11.9400	33.887592	38.065179
11.9500	33.915012	36.857014
11.9600	33.947273	35.660639
11.9700	33.983995	34.477818
11.9800	34.024777	33.310309
11.9900	34.069205	32.159851
12.0000	34.116855	31.028151
12.0100	34.167296	29.916873
12.0200	34.220097	28.827622
12.0300	34.274827	27.761937
12.0400	34.331062	26.721277
12.0500	34.388387	25.707010
12.0600	34.446399	24.720404
12.0700	34.504710	23.762620
12.0800	34.562950	22.834696
12.0900	34.620771	21.937546
12.1000	34.677843	21.071946
12.1100	34.733864	20.238531
12.1200	34.788554	19.437785
12.1300	34.841661	18.670040
12.1400	34.892959	17.935474
12.1500	34.942247	17.234106
12.1600	34.989357	16.565800
12.1700	35.034142	15.930271
12.1800	35.076487	15.327086
12.1900	35.116301	14.755677
12.2000	35.153520	14.215349
12.2100	35.188104	13.705289
12.2200	35.220038	13.224585
12.2300	35.249330	12.772237
12.2400	35.276008	12.347172
12.2500	35.300120	11.948260
12.2600	35.321733	11.574329
12.2700	35.340932	11.224181
12.2800	35.357814	10.896610
12.2900	35.372491	10.590408
12.3000	35.385087	10.304390
12.3100	35.395736	10.037395
12.3200	35.404580	9.788304
12.3300	35.411768	9.556049
12.3400	35.417452	9.339618
12.3500	35.421791	9.138064
12.3600	35.424942	8.950510
12.3700	35.427064	8.776151
12.3800	35.428315	8.614257
12.3900	35.428850	8.464171
12.4000	35.428818	8.325314
12.4100	35.428364	8.197173
12.4200	35.427628	8.079307
12.4300	35.426738	7.971337
12.4400	35.425818	7.872941
12.4500	35.424980	7.783849
12.4600	35.424325	7.703837
12.4700	35.423944	7.632713
12.4800	35.423917	7.570319
12.4900	35.424311	7.516513
12.5000	35.425180	7.471168
12.5100	35.426568	7.434157
12.5200	35.428503	7.405351
12.5300	35.431004	7.384608
12.5400	35.434074	7.371768
12.5500	35.437707	7.366643
12.5600	35.441884	7.369018
12.5700	35.446573	7.378641
12.5800	35.451734	7.395222
12.5900	35.457315	7.418435
12.6000	35.463255	7.447910
12.6100	35.469486	7.483241
12.6200	35.475931	7.523985
12.6300	35.482507	7.569662
12.6400	35.489127	7.619765
12.6500	35.495699	7.673757
12.6600	35.502128	7.731085
12.6700	35.508318	7.791179
12.6800	35.514173	7.853459
12.6900	35.519598	7.917343
12.7000	35.524499	7.982254
12.7100	35.528789	8.047620
12.7200	35.532382	8.112886
12.7300	35.535201	8.177515
12.7400	35.537174	8.240995
12.7500	35.538238	8.302841
12.7600	35.538339	8.362599
12.7700	35.537432	8.419851
12.7800	35.535482	8.474215
12.7900	35.532465	8.525351
12.8000	35.528368	8.572959
12.8100	35.523190	8.616783
12.8200	35.516941	8.656611
12.8300	35.509642	8.692279
12.8400	35.501326	8.723665
12.8500	35.492037	8.750696
12.8600	35.481830	8.773343
12.8700	35.470769	8.791622
12.8800	35.458929	8.805594
12.8900	35.446392	8.815361
12.9000	35.433248	8.821066
12.9100	35.419595	8.822892
12.9200	35.405534	8.821054
12.9300	35.391172	8.815806
12.9400	35.376616	8.807427
12.9500	35.361976	8.796228
12.9600	35.347361	8.782539
